<svg width="1746" height="1251" viewBox="0 0 1746 1251" fill="none" xmlns="http://www.w3.org/2000/svg">
<path d="M157.821 457.693H0V372.384C143.601 372.384 265.166 372.384 409.475 372.384V457.693H251.659V870.011H157.822L157.821 457.693Z" fill="#213C85"/>
<path d="M437.899 725.698C443.585 769.064 481.26 800.342 542.396 800.342C574.391 800.342 616.333 788.258 636.233 767.646L691.683 822.384C654.72 860.771 594.291 879.253 540.977 879.253C420.124 879.253 348.323 804.609 348.323 692.29C348.323 585.657 420.836 508.877 534.579 508.877C651.877 508.877 725.097 581.39 711.589 725.698H437.899ZM628.417 653.897C622.731 608.4 587.187 585.656 537.423 585.656C490.502 585.656 452.114 608.399 439.319 653.897H628.417Z" fill="#213C85"/>
<path d="M1079.1 825.226C1038.58 865.037 995.924 880.676 944.029 880.676C842.375 880.676 757.779 819.54 757.779 695.132C757.779 570.724 842.375 509.588 944.029 509.588C993.793 509.588 1032.18 523.808 1070.57 561.483L1015.83 619.064C995.217 600.582 969.621 591.342 945.453 591.342C887.16 591.342 844.506 633.996 844.506 695.132C844.506 761.954 890.003 797.498 944.029 797.498C971.757 797.498 999.479 789.681 1020.81 768.352L1079.1 825.226Z" fill="#213C85"/>
<path d="M1204.2 372.385V567.17C1235.48 526.652 1273.87 514.563 1313.68 514.563C1413.2 514.563 1457.28 582.102 1457.28 685.18V870.012H1370.55V685.892C1370.55 621.908 1337.14 594.898 1290.93 594.898C1239.75 594.898 1204.2 638.259 1204.2 690.866V870.012H1117.47V372.386L1204.2 372.385Z" fill="#213C85"/>
<path d="M157.56 0V328.293H251.919V94.359H1651.64V1155.9H251.919V914.106H157.56V1250.26H1746V0H157.56Z" fill="#213C85"/>
</svg>
